<?xml version="1.0" encoding="utf-8"?>
<svg width="80px" height="74px" viewBox="0 0 80 74" version="1.1" xmlns:xlink="http://www.w3.org/1999/xlink" xmlns="http://www.w3.org/2000/svg">
  <g id="Group-19">
    <path d="M35.0495 0.000585618C35.0036 -0.000738645 34.9576 0.000183343 34.9117 0.00334828C34.6411 0.0194967 34.3808 0.113261 34.1621 0.273428L0.598571 25.0451C0.180297 25.3397 -0.0457523 25.8377 0.00776087 26.3466C0.0612741 26.8554 0.38597 27.2955 0.856397 27.4967C1.32682 27.6979 1.86931 27.6288 2.27427 27.3161L9.85899 21.7212L9.85899 26.1806L9.85899 54.9099C9.85601 55.6892 10.4853 56.3234 11.2646 56.3265L36.7114 56.3265C38.9666 65.8032 47.483 72.8795 57.6411 72.8795C69.5156 72.8795 79.1716 63.2235 79.1716 51.3491C79.1716 40.3259 70.8444 31.2255 60.1519 29.9757L60.1519 26.1806L60.1519 21.7295L67.7228 27.3161C68.1285 27.6165 68.6636 27.6775 69.1265 27.4761C69.5894 27.2747 69.9096 26.8416 69.9662 26.34C70.0229 25.8384 69.8075 25.3447 69.4013 25.0451L35.8378 0.273434C35.6085 0.105141 35.3338 0.0100363 35.0495 0.000585618ZM35.0054 3.17008L57.3269 19.6432L57.3269 20.8779L57.3269 26.1806L57.3269 29.8324C47.7984 29.9707 39.7482 36.3146 37.0642 45.0046C37.0329 45.1055 37.0141 45.2117 36.9843 45.3133C36.6218 46.5518 36.3552 47.8331 36.2208 49.1525C36.1474 49.874 36.1077 50.608 36.1079 51.3491C36.1079 52.0772 36.1472 52.7945 36.2181 53.5043L12.6812 53.5043L12.6812 26.1806L12.6812 20.8779L12.6812 19.6404L15.5034 17.5568L35.0054 3.17008ZM57.6301 32.638C57.9623 32.6471 58.2881 32.6636 58.6195 32.6903C58.6708 32.6949 58.7223 32.6967 58.7738 32.6956C68.5905 33.2824 76.3493 41.3821 76.3493 51.3488C76.3493 61.698 67.9903 70.057 57.6411 70.057C48.4722 70.057 40.8767 63.4899 39.2608 54.7966C39.2576 54.7504 39.252 54.7044 39.2443 54.6588C39.0441 53.5657 38.9361 52.46 38.9328 51.3488C38.9328 50.7029 38.9657 50.0621 39.0293 49.4333C39.0293 49.4333 39.0293 49.4305 39.0293 49.4305C39.0931 48.8008 39.186 48.1824 39.3104 47.5729C39.5589 46.3543 39.9267 45.1781 40.3991 44.0589C40.5124 43.7905 40.6513 43.5353 40.7766 43.2735C40.9121 42.9904 41.0382 42.6968 41.1873 42.4218C41.4744 41.8927 41.7838 41.3805 42.1189 40.8839C42.1189 40.8839 42.1216 40.8812 42.1216 40.8812C42.7919 39.8882 43.5572 38.9612 44.4009 38.1168C44.4009 38.1168 44.4036 38.1141 44.4036 38.1141C44.4036 38.1141 44.4064 38.1113 44.4064 38.1113C44.8284 37.6893 45.2686 37.2899 45.7293 36.9097C45.7293 36.9097 45.7321 36.9069 45.7321 36.9069C45.8867 36.7794 46.0557 36.6685 46.2144 36.5458C46.5301 36.302 46.8422 36.0529 47.1735 35.8293C47.6694 35.4946 48.1803 35.1846 48.7086 34.8977C48.7104 34.8967 48.7123 34.8959 48.714 34.895C48.7534 34.8736 48.7958 34.8582 48.8352 34.8371C49.3289 34.5739 49.8321 34.3258 50.3511 34.1068C51.468 33.6352 52.6409 33.2696 53.8568 33.0208C53.8596 33.0203 53.8621 33.0187 53.8653 33.0181C54.4712 32.8945 55.0888 32.8007 55.7147 32.737C56.3441 32.6729 56.9836 32.6381 57.6301 32.6378L57.6301 32.638ZM57.6413 39.6302C52.2986 39.6302 47.9426 43.9834 47.9426 49.3261C47.9426 52.4678 50.2698 55.5172 52.4102 58.1069C54.5506 60.6967 56.6821 62.6903 56.6821 62.6903C57.2244 63.1968 58.0663 63.1968 58.6086 62.6903C58.6086 62.6903 60.7402 60.6967 62.8805 58.1069C65.0209 55.5172 67.3482 52.4678 67.3482 49.3261C67.3482 43.9834 62.9839 39.6302 57.6413 39.6302L57.6413 39.6302ZM57.6413 42.4524C61.4587 42.4524 64.5259 45.5087 64.5259 49.3261C64.5259 50.7644 62.7093 53.8882 60.7032 56.3155C59.1786 58.1603 58.2962 58.9692 57.6495 59.598C57.0047 58.9711 56.1146 58.1632 54.5875 56.3155C52.5815 53.8882 50.7648 50.7644 50.7648 49.3261C50.7648 45.5087 53.8239 42.4524 57.6413 42.4524ZM57.644 45.6109C55.9355 45.6118 54.5511 46.9974 54.5517 48.706C54.5527 50.4134 55.9366 51.7973 57.644 51.7983C59.3525 51.7989 60.7381 50.4145 60.7391 48.706C60.7393 47.885 60.4134 47.0976 59.8329 46.5171C59.2524 45.9366 58.465 45.6106 57.644 45.6109L57.644 45.6109Z" transform="translate(0.23643282 0.38246557)" id="Shape" fill="#2C2F49" stroke="none" />
  </g>
</svg>