<?xml version="1.0" encoding="utf-8"?>
<svg width="80px" height="64px" viewBox="0 0 80 64" version="1.1" xmlns:xlink="http://www.w3.org/1999/xlink" xmlns="http://www.w3.org/2000/svg">
  <g id="Group-18">
    <path d="M6.15385 0C2.77108 0 0 2.77138 0 6.15385L0 10.7692L0 16.9231L0 43.0769C0 46.4597 2.7712 49.2308 6.15385 49.2308L27.7705 49.2308C28.5465 56.9898 35.1182 63.0769 43.0769 63.0769C51.0357 63.0769 57.6074 56.9898 58.3834 49.2308L73.8462 49.2308C77.2289 49.2308 80 46.4597 80 43.0769L80 16.9231L80 10.7692L80 6.15385C80 2.77138 77.2288 0 73.8462 0L6.15385 0ZM6.15385 3.07692L73.8461 3.07692C75.5774 3.07692 76.9231 4.42277 76.9231 6.15385L76.9231 9.23077L3.07692 9.23077L3.07692 6.15385C3.07692 4.42277 4.42258 3.07692 6.15385 3.07692ZM3.07692 12.3077L76.9231 12.3077L76.9231 15.3846L3.07692 15.3846L3.07692 12.3077ZM3.07692 18.4615L76.9231 18.4615L76.9231 43.0769C76.9231 44.8083 75.5774 46.1538 73.8461 46.1538L58.3834 46.1538C57.61 38.3923 51.0375 32.3077 43.0769 32.3077C35.1163 32.3077 28.5437 38.3923 27.7705 46.1538L6.15385 46.1538C4.42258 46.1538 3.07692 44.8083 3.07692 43.0769L3.07692 18.4615ZM7.536 27.6923C6.68633 27.7355 6.03253 28.4593 6.07569 29.3089C6.11886 30.1586 6.84264 30.8124 7.69231 30.7692L24.6154 30.7692C25.1702 30.7771 25.6863 30.4856 25.966 30.0063C26.2457 29.5271 26.2457 28.9344 25.966 28.4552C25.6863 27.976 25.1702 27.6845 24.6154 27.6923L7.69231 27.6923C7.64024 27.6897 7.58807 27.6897 7.536 27.6923L7.536 27.6923ZM7.56062 33.8462C6.71095 33.8893 6.05715 34.6131 6.10031 35.4628C6.14347 36.3124 6.86725 36.9662 7.71692 36.9231L18.6905 36.9231C19.2453 36.9309 19.7614 36.6394 20.0411 36.1602C20.3208 35.681 20.3208 35.0883 20.0411 34.609C19.7614 34.1298 19.2453 33.8383 18.6905 33.8462L7.71692 33.8462C7.66485 33.8435 7.61268 33.8435 7.56062 33.8462L7.56062 33.8462ZM24.4597 33.8462C23.9101 33.8741 23.4171 34.1931 23.1664 34.6831C22.9158 35.173 22.9456 35.7595 23.2446 36.2215C23.5436 36.6836 24.0664 36.951 24.616 36.9231L26.1785 36.9231C26.7333 36.9309 27.2494 36.6394 27.5291 36.1602C27.8088 35.681 27.8088 35.0883 27.5291 34.609C27.2494 34.1298 26.7333 33.8383 26.1785 33.8462L24.616 33.8462C24.5639 33.8435 24.5118 33.8435 24.4597 33.8462L24.4597 33.8462ZM43.0775 35.3846C49.8932 35.3846 55.3852 40.8769 55.3852 47.6923C55.3852 54.508 49.8932 60 43.0775 60C36.2618 60 30.7698 54.508 30.7698 47.6923C30.7698 40.8769 36.2618 35.3846 43.0775 35.3846ZM48.9249 42.2117C48.5646 42.2202 48.2218 42.3689 47.9694 42.6262L40.6617 49.8378C39.835 49.0215 39.0064 48.2086 38.1797 47.392C37.8334 47.0173 37.309 46.8634 36.8151 46.9915C36.3212 47.1196 35.9377 47.5089 35.8172 48.0048C35.6967 48.5006 35.8586 49.0225 36.2386 49.3631C37.3901 50.5003 38.5367 51.6335 39.6882 52.7705C40.2276 53.3038 41.0958 53.3038 41.6353 52.7705L49.9165 44.5975C50.3305 44.2023 50.4586 43.5931 50.239 43.0645C50.0193 42.536 49.4971 42.1971 48.9249 42.2117L48.9249 42.2117Z" transform="translate(0 0.13333334)" id="Shape" fill="#2C2F49" stroke="none" />
  </g>
</svg>