<?xml version="1.0" encoding="utf-8"?>
<svg width="80px" height="80px" viewBox="0 0 80 80" version="1.1" xmlns:xlink="http://www.w3.org/1999/xlink" xmlns="http://www.w3.org/2000/svg">
  <g id="Group-17">
    <path d="M7.42857 74.6743L44.1686 74.6743C47.9714 77.98 52.92 80 58.3429 80C70.2829 80 79.9943 70.2857 79.9943 58.3457C79.9943 52.92 77.9743 47.9686 74.6657 44.1629L74.6657 13.6086C74.6657 9.51143 71.3343 6.18 67.2371 6.18L60.66 6.18L60.66 4.57429C60.66 2.05429 58.6114 0.00285714 56.0886 0.00285714L55.6829 0.00285714C53.16 0.00285714 51.1114 2.05429 51.1114 4.57429L51.1114 6.18L23.5514 6.18L23.5514 4.57143C23.5514 2.05143 21.5 0 18.98 0L18.5771 0C16.0571 0 14.0057 2.05143 14.0057 4.57143L14.0057 6.18L7.42857 6.18C3.33143 6.18 0 9.51429 0 13.6086L0 67.2457C0 71.3429 3.33143 74.6743 7.42857 74.6743ZM3.42571 67.2457L3.42571 26.7943L71.2343 26.7943L71.2343 40.9943C67.6257 38.3057 63.1771 36.6943 58.3371 36.6943C46.3971 36.6943 36.6857 46.4086 36.6857 58.3486C36.6857 63.1857 38.2971 67.64 40.9886 71.2514L7.42857 71.2514C5.22286 71.2457 3.42571 69.4543 3.42571 67.2457ZM58.3429 76.5686C48.2886 76.5686 40.1171 68.3943 40.1171 58.3457C40.1171 48.2971 48.2886 40.1229 58.3429 40.1229C68.3971 40.1229 76.5686 48.2971 76.5686 58.3457C76.5686 68.3943 68.3914 76.5686 58.3429 76.5686ZM54.54 4.57429C54.54 3.95429 55.0657 3.43143 55.6829 3.43143L56.0943 3.43143C56.7171 3.43143 57.2371 3.95429 57.2371 4.57429L57.2371 12.7286C57.2371 13.3486 56.7086 13.8714 56.0943 13.8714L55.6829 13.8714C55.0629 13.8714 54.54 13.3486 54.54 12.7286L54.54 4.57429ZM17.4343 4.57143C17.4343 3.95143 17.96 3.42857 18.5771 3.42857L18.9886 3.42857C19.6086 3.42857 20.1314 3.95143 20.1314 4.57143L20.1314 12.7314C20.1314 13.3514 19.6057 13.8743 18.9886 13.8743L18.5771 13.8743C17.9571 13.8743 17.4343 13.3514 17.4343 12.7314L17.4343 4.57143ZM7.42857 9.60857L14.0086 9.60857L14.0086 12.7314C14.0086 15.2514 16.06 17.3029 18.58 17.3029L18.9914 17.3029C21.5114 17.3029 23.5629 15.2514 23.5629 12.7314L23.5629 9.60857L51.12 9.60857L51.12 12.7286C51.12 15.2486 53.1743 17.3 55.6943 17.3L56.1057 17.3C58.6286 17.3 60.6771 15.2486 60.6771 12.7286L60.6771 9.60857L67.2543 9.60857C69.4571 9.60857 71.2514 11.4029 71.2514 13.6086L71.2514 23.3657L3.42571 23.3657L3.42571 13.6086C3.42571 11.4029 5.22286 9.60857 7.42857 9.60857Z" id="Shape" fill="#2C2F49" stroke="none" />
    <path d="M3.43143 14.4143L3.43143 1.71429C3.43143 0.765714 2.66 0 1.71429 0C0.768571 0 0 0.768571 0 1.71429L0 16.1314C0 17.08 0.768571 17.8486 1.71429 17.8486L14.2771 17.8486C15.2257 17.8486 15.9943 17.0771 15.9943 16.1314C15.9943 15.1857 15.2257 14.4143 14.2771 14.4143L3.43143 14.4143Z" transform="translate(51.2 48.533333)" id="Shape" fill="#2C2F49" fill-rule="evenodd" stroke="none" />
  </g>
</svg>