<?xml version="1.0" encoding="utf-8"?>
<svg width="80px" height="81px" viewBox="0 0 80 81" version="1.1" xmlns:xlink="http://www.w3.org/1999/xlink" xmlns="http://www.w3.org/2000/svg">
  <g id="Group-16">
    <path d="M18.498 0.000191106C12.323 -0.0189796 6.22896 1.40442 0.701398 4.15697C0.294933 4.36134 0.0283722 4.76703 0.00212745 5.22122C-0.0241173 5.67542 0.193941 6.10911 0.574161 6.35893C0.954382 6.60876 1.439 6.63676 1.84547 6.43239C7.01695 3.8547 12.7197 2.5226 18.498 2.54256C32.3015 2.54901 44.98 10.1559 51.4817 22.3323C57.9834 34.5087 57.2518 49.276 49.5785 60.7502C49.3893 61.0299 49.3191 61.3734 49.3835 61.7049C49.4479 62.0364 49.6416 62.3286 49.9217 62.5171C50.1343 62.6539 50.3808 62.7288 50.6336 62.7332C51.0564 62.7339 51.4519 62.5242 51.6887 62.1739C59.8891 49.9199 60.6737 34.1455 53.7299 21.1381C46.7861 8.13082 33.2427 0.00524192 18.498 0.000191106Z" transform="translate(21.501991 0.46591058)" id="Shape" fill="#2C2F49" fill-rule="evenodd" stroke="none" />
    <path d="M4.02797 0.410379C2.91617 1.69381 1.71394 2.89603 0.430515 4.00784C-0.0953805 4.47151 -0.146567 5.27343 0.316108 5.80021C0.557087 6.07451 0.904379 6.23195 1.2695 6.23241C1.57685 6.23549 1.8749 6.12711 2.10848 5.92733C3.46294 4.74223 4.73694 3.46823 5.92204 2.11377C6.22178 1.77089 6.31582 1.29414 6.16875 0.863114C6.02167 0.432089 5.65582 0.112271 5.209 0.0241305C4.76219 -0.0640097 4.30229 0.092919 4.00255 0.435803L4.02797 0.410379Z" transform="translate(64.15423 64.58115)" id="Shape" fill="#2C2F49" fill-rule="evenodd" stroke="none" />
    <path d="M61.237 57.1526C45.7812 67.8506 24.7872 65.4192 12.1859 51.4717C-0.415498 37.5242 -0.711004 16.3919 11.4954 2.09754C11.9518 1.56398 11.8892 0.761509 11.3556 0.305172C10.822 -0.151165 10.0196 -0.0885607 9.56323 0.445002C-3.46624 15.7117 -3.14711 38.2753 10.3089 53.1675C23.765 68.0596 46.1808 70.6573 62.6861 59.2374C63.2609 58.8367 63.4031 58.0463 63.0039 57.4704C62.6032 56.8956 61.8129 56.7535 61.237 57.1526Z" transform="translate(0.055409078 14.016862)" id="Shape" fill="#2C2F49" fill-rule="evenodd" stroke="none" />
    <path d="M1.28067 4.08168C1.59301 4.07426 1.89168 3.95208 2.11966 3.73846C2.64084 3.25541 3.16203 2.79778 3.70864 2.35287C4.12843 2.09369 4.36035 1.61503 4.30358 1.12495C4.24681 0.634878 3.9116 0.221909 3.44368 0.0655622C2.97576 -0.0907845 2.45963 0.0377302 2.11966 0.395241C1.53491 0.86558 0.97559 1.36134 0.416268 1.86982C0.026325 2.22422 -0.104546 2.78245 0.0872542 3.27324C0.279055 3.76402 0.753759 4.08559 1.28067 4.08168Z" transform="translate(12.456614 9.2106905)" id="Shape" fill="#2C2F49" fill-rule="evenodd" stroke="none" />
    <path d="M1.27753 2.7683C1.53106 2.76887 1.77897 2.69361 1.98939 2.5522L2.30719 2.3361C2.89341 1.94646 3.05277 1.15536 2.66312 0.569148C2.27348 -0.01707 1.48239 -0.176426 0.896175 0.213215L0.552954 0.467453C-0.026195 0.864146 -0.174161 1.65519 0.222446 2.2344C0.464923 2.57507 0.85943 2.7747 1.27753 2.7683L1.27753 2.7683Z" transform="translate(17.036028 6.8884797)" id="Shape" fill="#2C2F49" fill-rule="evenodd" stroke="none" />
    <path d="M46.7546 5.11326L24.1783 0.0285161C23.9938 -0.00950537 23.8035 -0.00950537 23.619 0.0285161L0.991909 5.11326C0.400614 5.24642 -0.0144249 5.77852 0.000383946 6.38445C0.000383946 6.88021 0.712248 18.6514 3.49615 26.9141C8.25038 41.0878 22.6529 48.6641 23.2631 48.9819C23.6298 49.1719 24.0659 49.1719 24.4326 48.9819C25.0428 48.6641 39.4453 41.0878 44.1995 26.9141C46.9834 18.6514 47.6699 6.88021 47.6953 6.38445C47.7155 5.79351 47.3257 5.26665 46.7546 5.11326ZM41.8097 26.1514C37.9199 37.7828 26.5555 44.876 23.8733 46.4904C21.1656 44.9268 9.89021 37.8336 5.93682 26.1514C3.73767 19.6175 2.87327 10.465 2.63174 7.37597L23.8733 2.60902L45.1148 7.36326C44.8733 10.4522 44.0089 19.6048 41.8097 26.1514Z" transform="translate(16.126734 17.941822)" id="Shape" fill="#2C2F49" stroke="none" />
    <path d="M2.17893 7.823C1.68047 7.32454 0.872306 7.32454 0.373845 7.823C-0.124615 8.32146 -0.124615 9.12962 0.373845 9.62808L5.91622 15.1705C6.1549 15.4111 6.47982 15.5465 6.81876 15.5465C7.15771 15.5465 7.48262 15.4111 7.7213 15.1705L20.7128 2.17893C21.2113 1.68047 21.2113 0.872306 20.7128 0.373845C20.2144 -0.124615 19.4062 -0.124615 18.9077 0.373845L6.81876 12.5391L2.17893 7.823Z" transform="translate(29.456663 31.68124)" id="Shape" fill="#2C2F49" fill-rule="evenodd" stroke="none" />
  </g>
</svg>