<?xml version="1.0" encoding="utf-8"?>
<svg width="63px" height="23px" viewBox="0 0 63 23" version="1.1" xmlns:xlink="http://www.w3.org/1999/xlink" xmlns="http://www.w3.org/2000/svg">
  <g id="Group-3" transform="translate(0.5 0.5)">
    <g id="Group-2">
      <g id="Group">
        <path d="M30.7404 6.1362C30.5156 6.0474 28.692 3.96058 25.7724 3.96058C19.2876 3.96058 16.0739 10.6153 11.508 12.6522C11.2797 12.754 7.48887 14.0869 5.0414 10.6222C2.2921 6.73023 5.14542 2.1895 8.03963 2.1895C10.111 2.1895 11.3355 3.59351 11.3355 4.98977C11.3355 5.34576 11.1625 6.37167 11.1625 6.37167C11.1625 6.37167 12.1486 5.52587 12.3959 4.63098C12.8703 2.91384 11.8297 1.11698 9.27855 0.226669C6.72744 -0.663641 3.94312 1.31819 3.23287 1.874C1.17838 3.48172 -2.87908 9.89236 3.23287 16.9003C5.24091 19.2027 9.85346 21.4894 13.6396 21.7562C17.4257 22.023 22.7364 21.5085 26.7079 18.9309C27.4783 18.4309 29.2902 16.6801 30.5156 15.1373C30.6563 14.9603 31.0305 14.5939 31.0305 14.5939L31.5437 6.1362C31.5437 6.1362 30.9652 6.225 30.7404 6.1362Z" transform="translate(0.029459659 0.066542886)" id="Path-2" fill="#2C2E4A" fill-rule="evenodd" stroke="none" />
        <path d="M23.3553 0C23.3553 0 21.1584 0.711675 19.6362 1.53497C17.2014 2.85188 12.5395 6.37697 7.7162 7.18766C3.4837 7.89904 0 5.57632 0 5.57632C0 5.57632 1.73752 6.94889 3.75223 7.63004C5.76694 8.31118 12.9889 8.31118 17.5584 5.44105C22.128 2.57092 23.3553 0 23.3553 0Z" transform="translate(5.128276 9.165899)" id="Path-4" fill="#FDB25F" fill-rule="evenodd" stroke="none" />
        <path d="M23.432 7.10543e-15C23.432 7.10543e-15 20.332 4.69416 13.1979 6.81344C6.06378 8.93273 0 5.95646 0 5.95646C0 5.95646 5.68182 10.8704 14.3239 8.57536C22.7868 6.32792 23.432 7.10543e-15 23.432 7.10543e-15Z" transform="translate(6.466733 10.453038)" id="Path-5" fill="#FDB25F" fill-rule="evenodd" stroke="none" />
        <path d="M5.60389 8.96023C8.50848 8.0938 11.5926 6.0636 16.1617 2.87407C17.5553 1.90123 20.1641 0.783448 20.1641 0.783448C20.1641 0.783448 18.45 -0.712689 14.8853 0.64832C12.5022 1.55815 9.22113 5.42055 6.06081 7.59936C3.67757 9.24242 0 8.96023 0 8.96023C0 8.96023 1.95731 10.048 5.60389 8.96023Z" transform="translate(7.989834 6.206545)" id="Path-3" fill="#FDB25F" fill-rule="evenodd" stroke="none" />
      </g>
      <g id="Group" transform="matrix(-1 0 0 1 62 0)">
        <path d="M30.7404 6.1362C30.5156 6.0474 28.692 3.96058 25.7724 3.96058C19.2876 3.96058 16.0739 10.6153 11.508 12.6522C11.2797 12.754 7.48887 14.0869 5.0414 10.6222C2.2921 6.73023 5.14542 2.1895 8.03963 2.1895C10.111 2.1895 11.3355 3.59351 11.3355 4.98977C11.3355 5.34576 11.1625 6.37167 11.1625 6.37167C11.1625 6.37167 12.1486 5.52587 12.3959 4.63098C12.8703 2.91384 11.8297 1.11698 9.27855 0.226669C6.72744 -0.663641 3.94312 1.31819 3.23287 1.874C1.17838 3.48172 -2.87908 9.89236 3.23287 16.9003C5.24091 19.2027 9.85346 21.4894 13.6396 21.7562C17.4257 22.023 22.7364 21.5085 26.7079 18.9309C27.4783 18.4309 29.2902 16.6801 30.5156 15.1373C30.6563 14.9603 31.0305 14.5939 31.0305 14.5939L31.5437 6.1362C31.5437 6.1362 30.9652 6.225 30.7404 6.1362Z" transform="translate(0.029459659 0.066542886)" id="Path-2" fill="#2C2E4A" fill-rule="evenodd" stroke="none" />
        <path d="M23.3553 0C23.3553 0 21.1584 0.711675 19.6362 1.53497C17.2014 2.85188 12.5395 6.37697 7.7162 7.18766C3.4837 7.89904 0 5.57632 0 5.57632C0 5.57632 1.73752 6.94889 3.75223 7.63004C5.76694 8.31118 12.9889 8.31118 17.5584 5.44105C22.128 2.57092 23.3553 0 23.3553 0Z" transform="translate(5.008353 9.165899)" id="Path-4" fill="#FDB25F" fill-rule="evenodd" stroke="none" />
        <path d="M23.432 7.10543e-15C23.432 7.10543e-15 20.332 4.69416 13.1979 6.81344C6.06378 8.93273 0 5.95646 0 5.95646C0 5.95646 5.68182 10.8704 14.3239 8.57536C22.7868 6.32792 23.432 7.10543e-15 23.432 7.10543e-15Z" transform="translate(6.3468103 10.453038)" id="Path-5" fill="#FDB25F" fill-rule="evenodd" stroke="none" />
        <path d="M5.60389 8.96023C8.50848 8.0938 11.5926 6.0636 16.1617 2.87407C17.5553 1.90123 20.1641 0.783448 20.1641 0.783448C20.1641 0.783448 18.45 -0.712689 14.8853 0.64832C12.5022 1.55815 9.22113 5.42055 6.06081 7.59936C3.67757 9.24242 0 8.96023 0 8.96023C0 8.96023 1.95731 10.048 5.60389 8.96023Z" transform="translate(7.869911 6.206545)" id="Path-3" fill="#FDB25F" fill-rule="evenodd" stroke="none" />
      </g>
    </g>
  </g>
</svg>